<svg xmlns="http://www.w3.org/2000/svg" width="1920" height="1080" viewBox="0 0 1920 1080"><defs><linearGradient id="room" x2="0" y2="1"><stop stop-color="#171a20"/><stop offset="1" stop-color="#3a3b3e"/></linearGradient><linearGradient id="metal" x2="0.2" y2="1"><stop stop-color="#d9e2ec"/><stop offset=".35" stop-color="#8a99aa"/><stop offset=".48" stop-color="#333e4c"/><stop offset=".7" stop-color="#19212b"/><stop offset="1" stop-color="#58616d"/></linearGradient><linearGradient id="red" x2="0.1" y2="1"><stop stop-color="#c1272d"/><stop offset=".4" stop-color="#86202a"/><stop offset="1" stop-color="#291b20"/></linearGradient><linearGradient id="glass" x2="0" y2="1"><stop stop-color="#8fb0da" stop-opacity=".5"/><stop offset="1" stop-color="#111820"/></linearGradient><radialGradient id="light"><stop stop-color="#8fb0da" stop-opacity=".35"/><stop offset="1" stop-color="#8fb0da" stop-opacity="0"/></radialGradient><filter id="blur"><feGaussianBlur stdDeviation="20"/></filter></defs><path fill="url(#room)" d="M0 0h1920v1080H0z"/><ellipse cx="1390" cy="480" rx="770" ry="600" fill="url(#light)"/><path d="M0 690L1050 570L1920 680V1080H0Z" fill="#202226"/><g stroke="#b9d0ea" stroke-width="6" opacity=".5"><path d="M430 0L1070 360H1540L1820 0"/><path d="M900 0L1190 215H1465L1560 0"/><path d="M30 100L860 495H1820L1920 410"/></g><g stroke="#2e5590" opacity=".3"><path d="M1050 570L0 1080M1050 570L660 1080M1050 570L1600 1080M1050 570L1920 820M0 850H1920"/></g><ellipse cx="1360" cy="858" rx="475" ry="48" fill="#111111" opacity=".8" filter="url(#blur)"/><g transform="translate(900 350)"><path d="M28 348L90 223Q122 181 211 172L529 175Q582 181 635 284L741 318Q766 337 768 406L752 452H26L9 417Z" fill="url(#metal)" stroke="#8495a9" stroke-width="2"/><path d="M115 280L156 211Q169 198 230 198L344 198V280ZM364 198H514Q548 204 594 280H364Z" fill="url(#glass)"/><path d="M15 344L288 332L344 367L335 437H28ZM356 338L744 327" fill="none" stroke="#8fb0da" stroke-width="3"/><path d="M47 351L236 350L252 369L39 368Z" fill="#dfedff"/><path d="M45 384H282L276 425H38Z" fill="#111820"/><path d="M49 390H275M47 402H278M45 414H275" stroke="#475565" stroke-width="3"/><path d="M339 304L681 311M366 300V415M567 298V421" fill="none" stroke="#151b23" stroke-width="2"/><g fill="#101215" stroke="#353a42" stroke-width="9"><ellipse cx="360" cy="430" rx="55" ry="74"/><ellipse cx="682" cy="417" rx="50" ry="69"/></g><g fill="#677587" stroke="#adb7c3" stroke-width="4"><ellipse cx="360" cy="430" rx="29" ry="45"/><ellipse cx="682" cy="417" rx="27" ry="41"/></g></g><g transform="translate(410 490) scale(.63)"><path d="M20 290L110 259L215 156Q237 135 310 138H512L646 253L757 281L781 350H15Z" fill="url(#red)"/><path d="M168 250L251 157H361V250ZM383 157H500L605 250Z" fill="url(#glass)"/><path d="M38 285L183 275L208 298L32 308Z" fill="#dce9f7"/><circle cx="184" cy="344" r="63" fill="#111111"/><circle cx="642" cy="344" r="63" fill="#111111"/><circle cx="184" cy="344" r="33" fill="#6a727f"/><circle cx="642" cy="344" r="33" fill="#6a727f"/></g></svg>
